<?xml version="1.0" encoding="UTF-8"?> <svg xmlns="http://www.w3.org/2000/svg" width="252" height="40" viewBox="0 0 252 40"><g><g><g><path fill="#ed1c24" d="M77.818 39.378V.622H.888v38.756H39.397z"></path></g><g><path fill="#a7a9ac" d="M107.987 32.533c1.864 0 3.993-.266 5.68-.533l-.356 6.578c-2.04.533-4.969.8-7.453.8-7.72 0-10.382-4.267-9.228-11.2L99.47 12C100.71 5.067 104.881.8 112.6.8c2.396 0 5.236.356 7.1.8l-1.953 6.578c-1.508-.356-3.55-.534-5.413-.534-3.46 0-4.88 1.512-5.501 5.067l-2.573 14.845c-.621 3.466.355 4.977 3.726 4.977"></path></g><g><path fill="#a7a9ac" d="M125.025 39.289c-8.607 0-10.027-5.156-8.873-11.556l2.662-15.466C119.967 5.867 123.162.71 131.769.71s10.027 5.156 8.873 11.556l-2.662 15.466c-1.154 6.49-4.348 11.556-12.955 11.556m5.59-31.733c-2.84 0-3.727 1.51-4.081 4l-3.017 16.977c-.444 2.49-.09 4 2.75 4s3.727-1.51 4.082-4l3.017-16.977c.355-2.49.089-4-2.75-4"></path></g><g><path fill="#a7a9ac" d="M146.497 39.289c-2.396 0-5.146-.267-7.72-1.245l2.041-6.666c2.13.889 4.17 1.066 5.945 1.066 3.283 0 4.526-1.422 4.97-4 .62-3.466 0-3.822-3.106-4.977-7.01-2.49-6.744-5.511-5.59-12.445 1.33-7.555 5.59-10.31 11.978-10.31 2.751 0 5.324.355 7.454 1.066l-2.04 6.666a17.148 17.148 0 0 0-5.68-.977c-2.573 0-3.815.977-4.259 3.377-.532 2.934-.444 3.378 3.55 5.156 5.59 2.489 6.566 3.733 5.146 12-1.331 7.733-5.856 11.289-12.689 11.289"></path></g><g><path fill="#a7a9ac" d="M175.069 24.978l-2.396 13.689h-7.453l2.395-13.69-4.081-23.555h8.252l.976 15.2 6.389-15.2h8.252z"></path></g><g><path fill="#a7a9ac" d="M181.99 38.667l6.478-37.245h7.542l-5.413 30.4h9.05l-1.241 6.845z"></path></g><g><path fill="#a7a9ac" d="M224.937 38.667h-7.543l.09-7.556h-6.656l-2.484 7.556H200.8l14.286-37.245h8.696zm-11.802-14.4h4.526l.266-14.045z"></path></g><g><path fill="#a7a9ac" d="M226.445 38.667l6.566-37.245h11.624c5.59 0 7.454 2.667 6.566 7.911l-.62 3.556c-.533 2.933-2.396 5.333-5.502 6.489 3.55.533 5.146 2.666 4.436 6.933l-.62 3.556c-1.065 5.244-4.437 8.8-11.27 8.8zm15.617-13.334c.266-1.689-.355-2.31-1.952-2.31h-3.372l-1.597 9.244h3.283c1.775 0 2.662-.978 2.928-2.49zm1.508-15.289c.267-1.422-.177-2.133-1.508-2.133h-2.75l-1.51 8.533h2.485c1.509 0 2.307-.888 2.574-2.4z"></path></g><g><path fill="#fff" d="M33.008 13.422v10.934h-8.873V13.422H10.47v10.934H.71v2.222h11.979V15.644h9.228v10.934h13.31V15.644h8.962v10.934h13.398V15.644h8.696v10.934h11.624v-2.222h-9.406V13.422H55.37v10.934h-9.05V13.422z"></path></g></g></g></svg> 