<?xml version="1.0" encoding="UTF-8" ?>
<!DOCTYPE svg PUBLIC "-//W3C//DTD SVG 1.1//EN" "http://www.w3.org/Graphics/SVG/1.1/DTD/svg11.dtd">
<svg width="297pt" height="296pt" viewBox="0 0 297 296" version="1.1" xmlns="http://www.w3.org/2000/svg">
<g id="#1e75bcff">
<path fill="#1e75bc" opacity="1.00" d=" M 0.00 0.00 L 297.00 0.00 L 297.00 296.00 L 0.00 296.00 L 0.00 0.00 M 123.20 29.06 C 114.73 31.00 105.72 32.98 98.96 38.82 C 93.06 44.11 91.13 52.33 91.03 59.96 C 90.95 71.27 91.02 82.58 91.00 93.89 C 92.65 93.56 94.29 93.23 95.94 92.89 C 95.98 81.60 95.96 70.30 95.94 59.01 C 95.98 52.95 97.56 46.37 102.19 42.15 C 107.85 37.44 115.21 35.71 122.20 33.97 C 128.91 32.37 136.51 31.57 142.70 35.27 C 148.65 38.96 150.80 46.38 151.01 53.01 C 151.00 62.86 151.00 72.70 150.99 82.55 C 152.66 82.28 154.33 82.02 156.00 81.77 C 155.96 72.50 156.08 63.23 155.95 53.96 C 155.65 46.00 153.32 37.32 146.62 32.35 C 139.97 27.30 131.01 27.33 123.20 29.06 M 158.37 40.88 C 158.82 42.35 159.26 43.83 159.70 45.31 C 166.41 43.95 175.65 41.74 180.15 48.58 C 184.62 57.15 182.51 67.23 183.03 76.50 C 184.67 76.22 186.31 75.95 187.96 75.70 C 187.86 67.26 188.63 58.68 186.63 50.40 C 185.66 46.05 182.83 41.93 178.52 40.37 C 172.00 38.04 164.94 39.55 158.37 40.88 M 128.67 56.87 C 126.07 66.71 127.25 77.04 127.05 87.10 C 128.68 86.81 130.31 86.51 131.94 86.21 C 132.06 79.78 131.92 73.35 132.00 66.93 C 132.23 62.43 132.77 57.44 136.05 54.03 C 138.72 51.56 142.31 50.52 145.68 49.41 C 145.28 47.92 144.87 46.43 144.46 44.95 C 138.15 46.97 130.66 49.80 128.67 56.87 M 210.03 76.99 C 155.36 87.40 100.68 97.79 46.00 108.14 C 46.03 151.00 45.94 193.86 46.05 236.72 C 100.44 247.66 154.79 258.77 209.16 269.80 C 212.18 270.24 215.37 271.70 218.38 270.48 C 229.25 266.30 240.13 262.16 251.00 257.98 C 251.01 201.35 250.99 144.72 251.00 88.09 C 240.17 84.18 229.28 80.44 218.45 76.54 C 215.71 75.39 212.79 76.59 210.03 76.99 Z" />
<path fill="#1e75bc" opacity="1.00" d=" M 124.06 132.31 C 140.41 130.33 156.68 127.74 173.01 125.67 C 173.02 140.12 173.03 154.57 173.01 169.03 C 156.67 169.03 140.33 169.04 123.98 169.02 C 124.03 156.79 123.88 144.55 124.06 132.31 Z" />
<path fill="#1e75bc" opacity="1.00" d=" M 83.96 138.07 C 96.64 136.27 109.30 134.36 122.00 132.68 C 122.00 144.79 122.00 156.91 122.00 169.02 C 109.32 169.03 96.64 169.04 83.96 169.02 C 83.95 158.71 83.94 148.39 83.96 138.07 Z" />
<path fill="#1e75bc" opacity="1.00" d=" M 83.95 171.01 C 96.64 170.99 109.32 171.00 122.00 171.00 C 122.00 183.12 122.00 195.25 122.00 207.37 C 109.31 205.67 96.64 203.78 83.96 201.96 C 83.94 191.64 83.95 181.32 83.95 171.01 Z" />
<path fill="#1e75bc" opacity="1.00" d=" M 123.98 171.00 C 140.33 171.00 156.67 171.00 173.02 171.00 C 173.02 185.46 173.02 199.92 173.01 214.38 C 156.68 212.28 140.41 209.73 124.07 207.72 C 123.86 195.48 124.03 183.24 123.98 171.00 Z" />
</g>
<g id="#ffffffff">
<path fill="#ffffff" opacity="1.00" d=" M 123.20 29.06 C 131.01 27.33 139.97 27.30 146.62 32.35 C 153.32 37.32 155.65 46.00 155.95 53.96 C 156.08 63.23 155.96 72.50 156.00 81.77 C 154.33 82.02 152.66 82.28 150.99 82.55 C 151.00 72.70 151.00 62.86 151.01 53.01 C 150.80 46.38 148.65 38.96 142.70 35.27 C 136.51 31.57 128.91 32.37 122.20 33.97 C 115.21 35.71 107.85 37.44 102.19 42.15 C 97.56 46.37 95.98 52.95 95.94 59.01 C 95.96 70.30 95.98 81.60 95.94 92.89 C 94.29 93.23 92.65 93.56 91.00 93.89 C 91.02 82.58 90.95 71.27 91.03 59.96 C 91.13 52.33 93.06 44.11 98.96 38.82 C 105.72 32.98 114.73 31.00 123.20 29.06 Z" />
<path fill="#ffffff" opacity="1.00" d=" M 158.37 40.88 C 164.94 39.55 172.00 38.04 178.52 40.37 C 182.83 41.93 185.66 46.05 186.63 50.40 C 188.63 58.68 187.86 67.26 187.96 75.70 C 186.31 75.95 184.67 76.22 183.03 76.50 C 182.51 67.23 184.62 57.15 180.15 48.58 C 175.65 41.74 166.41 43.95 159.70 45.31 C 159.26 43.83 158.82 42.35 158.37 40.88 Z" />
<path fill="#ffffff" opacity="1.00" d=" M 128.67 56.87 C 130.66 49.80 138.15 46.97 144.46 44.95 C 144.87 46.43 145.28 47.92 145.68 49.41 C 142.31 50.52 138.72 51.56 136.05 54.03 C 132.77 57.44 132.23 62.43 132.00 66.93 C 131.92 73.35 132.06 79.78 131.94 86.21 C 130.31 86.51 128.68 86.81 127.05 87.10 C 127.25 77.04 126.07 66.71 128.67 56.87 Z" />
<path fill="#ffffff" opacity="1.00" d=" M 210.03 76.99 C 212.79 76.59 215.71 75.39 218.45 76.54 C 229.28 80.44 240.17 84.18 251.00 88.09 C 250.99 144.72 251.01 201.35 251.00 257.98 C 240.13 262.16 229.25 266.30 218.38 270.48 C 215.37 271.70 212.18 270.24 209.16 269.80 C 154.79 258.77 100.44 247.66 46.05 236.72 C 45.94 193.86 46.03 151.00 46.00 108.14 C 100.68 97.79 155.36 87.40 210.03 76.99 M 124.06 132.31 C 123.88 144.55 124.03 156.79 123.98 169.02 C 140.33 169.04 156.67 169.03 173.01 169.03 C 173.03 154.57 173.02 140.12 173.01 125.67 C 156.68 127.74 140.41 130.33 124.06 132.31 M 83.96 138.07 C 83.94 148.39 83.95 158.71 83.96 169.02 C 96.64 169.04 109.32 169.03 122.00 169.02 C 122.00 156.91 122.00 144.79 122.00 132.68 C 109.30 134.36 96.64 136.27 83.96 138.07 M 83.95 171.01 C 83.95 181.32 83.94 191.64 83.96 201.96 C 96.64 203.78 109.31 205.67 122.00 207.37 C 122.00 195.25 122.00 183.12 122.00 171.00 C 109.32 171.00 96.64 170.99 83.95 171.01 M 123.98 171.00 C 124.03 183.24 123.86 195.48 124.07 207.72 C 140.41 209.73 156.68 212.28 173.01 214.38 C 173.02 199.92 173.02 185.46 173.02 171.00 C 156.67 171.00 140.33 171.00 123.98 171.00 Z" />
</g>
</svg>
