<?xml version="1.0" encoding="UTF-8"?>
<!-- Generator: Adobe Illustrator 19.1.0, SVG Export Plug-In . SVG Version: 6.00 Build 0)  -->
<svg version="1.1" xmlns="http://www.w3.org/2000/svg" xmlns:xlink="http://www.w3.org/1999/xlink" x="0px" y="0px" viewBox="0 0 800 600" style="enable-background:new 0 0 800 600;" xml:space="preserve">
<style type="text/css">
	.st0{fill:#FFFFFF;}
	.st1{fill:#09ABE1;}
</style>
<g id="Layer_3">
</g>
<g id="Layer_1" xmlns:dc="http://purl.org/dc/elements/1.1/" xmlns:svg="http://www.w3.org/2000/svg" xmlns:sodipodi="http://sodipodi.sourceforge.net/DTD/sodipodi-0.dtd" xmlns:rdf="http://www.w3.org/1999/02/22-rdf-syntax-ns#" xmlns:inkscape="http://www.inkscape.org/namespaces/inkscape" xmlns:cc="http://creativecommons.org/ns#" sodipodi:docname="marmalade_logo.svg" inkscape:version="0.48.4 r9939">
	<g>
		<circle class="st0" cx="364" cy="343" r="225"/>
		<g id="g7" transform="translate(-90.114021,-194.28738)">
			<path id="path9" inkscape:connector-curvature="0" class="st0" d="M433.7,677v-76.7h-22.8v8.2h-0.2c-2.8-4.6-9.8-10.8-22.3-10.8     c-20.4,0-38.4,15.8-38.4,40.8c0,21.9,14.3,41,38.4,41c8.9,0,18.6-3.5,22.3-11h0.2v8.4L433.7,677L433.7,677z M391.6,658.3     c-13.7,0-19.1-12.1-19.1-19.3c0-8.7,5.8-19.7,18.9-19.7c13,0,19.3,10.2,19.3,19.5C410.7,646.2,405.9,658.3,391.6,658.3z"/>
			<rect id="rect11" x="318.6" y="574.1" class="st0" width="22.8" height="102.9"/>
			<polygon id="polygon13" class="st0" points="376.2,444 376,444 354.3,376.8 318.5,376.8 318.5,478.9 342.2,478.9 341.5,402.6      341.7,402.2 366.9,478.9 385.3,478.9 410.4,402.2 410.7,402.6 409.8,478.9 433.6,478.9 433.6,376.8 397.7,376.8    "/>
			<path id="path15" inkscape:connector-curvature="0" class="st0" d="M524.4,402.4h-22.8v8.2h-0.2c-2.8-4.6-9.8-10.8-22.3-10.8     c-20.4,0-38.4,15.8-38.4,40.8c0,21.9,14.3,41,38.4,41c8.9,0,18.6-3.5,22.3-11h0.2v8.4h22.8V402.4L524.4,402.4z M482.2,460.2     c-13.7,0-19.1-12.1-19.1-19.3c0-8.7,5.8-19.7,18.9-19.7c13,0,19.3,10.2,19.3,19.5C501.3,448.1,496.5,460.2,482.2,460.2     L482.2,460.2z"/>
			<path id="path17" inkscape:connector-curvature="0" class="st0" d="M524.2,564.9v-76.7h-22.8v8.2h-0.2     c-2.8-4.6-9.8-10.8-22.3-10.8c-20.4,0-38.4,15.8-38.4,40.8c0,21.9,14.3,41,38.4,41c8.9,0,18.6-3.5,22.3-11h0.2v8.4L524.2,564.9     L524.2,564.9z M482.2,546.1c-13.7,0-19.1-12.1-19.1-19.3c0-8.7,5.8-19.7,18.9-19.7c13,0,19.3,10.2,19.3,19.5     C501.3,533.9,496.5,546.1,482.2,546.1L482.2,546.1z"/>
			<path id="path19" inkscape:connector-curvature="0" class="st0" d="M341.3,524c0-4.6-0.4-16.9,12.3-16.9     c11.1,0,11.1,11.9,11.1,16v41.8h22.5v-41.8c0-4.3,0-15.8,12.4-15.8c11.5,0,11.5,10.8,11.5,16.9v40.7h22.5v-41.8     c0-16.9-1.1-22.1-8.2-29.7c-6.1-6.5-14.5-7.8-19.7-7.8c-11.5,0-19.1,6.1-23.8,13.7c-5.9-11.3-13.7-13.7-20.4-13.7     c-12.3,0-18,7.6-19.9,10.8h-0.2v-8.2h-23v76.7h22.8L341.3,524L341.3,524z"/>
			<path id="path21" inkscape:connector-curvature="0" class="st0" d="M573,597.7c-23.4,0-40.1,19.7-40.1,41.2     c0,22.8,18.6,40.7,40.7,40.7c7.8,0,15.4-2.4,21.7-6.9c6.5-4.5,11.9-11,15.6-19.7h-23.4c-3.2,4.1-6.9,7.2-13.9,7.2     c-8.9,0-16.5-5.4-18-14.5H613c0.2-1.9,0.6-3,0.6-6.1C613.5,616.3,596.4,597.7,573,597.7L573,597.7z M555.7,630.2     c0.9-4.6,5.6-13.2,17.5-13.2s16.3,8.5,17.5,13.2H555.7z"/>
			<path id="path23" inkscape:connector-curvature="0" class="st0" d="M532.9,402.4v76.7h23V437c0-11.5,7.4-13.7,18-14.1v-23     c-13.2,0-17.3,7.1-19.1,10.8h-0.2v-8.2L532.9,402.4L532.9,402.4z"/>
			<path id="path25" inkscape:connector-curvature="0" class="st0" d="M502.1,668.8h0.4v8.4h21.7V574.3h-22.8v32.9     c-2.4-2.4-8.9-9.1-22.5-9.1c-19.5,0-37.9,14.9-37.9,40.7c0,23,15.2,41,38.4,41C494.6,679.6,500.2,672,502.1,668.8L502.1,668.8z      M463.6,638.4c0-8.9,6.1-19.1,19.5-19.1c12.6,0,19.3,10,19.3,19.1c0,8-5.2,19.7-19.7,19.7C472.2,658.1,463.6,650.3,463.6,638.4z"/>
			<path id="path27" inkscape:connector-curvature="0" class="st1" d="M482,506.9c-13.2,0-18.9,11-18.9,19.7     c0,7.2,5.2,19.3,19.1,19.3c14.3,0,19.1-12.1,19.1-19.7C501.3,517.1,495,506.9,482,506.9L482,506.9z"/>
			<path id="path29" inkscape:connector-curvature="0" class="st1" d="M502.4,638.4c0-9.3-6.7-19.1-19.3-19.1     c-13.2,0-19.5,10.4-19.5,19.1c0,11.9,8.4,19.7,19.1,19.7C497.2,658.1,502.4,646.4,502.4,638.4z"/>
			<path id="path31" inkscape:connector-curvature="0" class="st1" d="M482,421.2c-13.2,0-18.9,11-18.9,19.7     c0,7.2,5.2,19.3,19.1,19.3c14.3,0,19.1-12.1,19.1-19.7C501.3,431.4,495,421.2,482,421.2L482,421.2z"/>
			<path id="path33" inkscape:connector-curvature="0" class="st1" d="M391.4,619.3c-13.2,0-18.9,11-18.9,19.7     c0,7.2,5.2,19.3,19.1,19.3c14.3,0,19.1-12.1,19.1-19.7C410.7,629.5,404.4,619.3,391.4,619.3z"/>
			<path id="path35" inkscape:connector-curvature="0" class="st1" d="M573.2,617.2c-11.9,0-16.3,8.5-17.5,13.2h34.7     C589.5,625.8,585.1,617.2,573.2,617.2L573.2,617.2z"/>
			<path id="path37" inkscape:connector-curvature="0" class="st1" d="M415.9,290.5c-12.6,2.6-25.8,6.3-39,11.3     c-1.7,0.4-3.3,0.9-5,1.1c-42.9,8.5-84.7-13.7-102.7-51.4l-0.2,0.2c-29.1-63.3-98.2-51.2-103.4-50.3h-0.4     c-36.8,7.4-85.2,44.2-73.3,104c7.8,39.2,34.5,61.8,63.7,71.7c29,11.1,51.8,36.2,58.3,68.9c2.2,11,2.4,21.9,0.7,32.3     c-6.5,29.3-7.1,61.8,0,97.1c35.5,176.9,211.7,231.1,323.8,208.7C665,758.7,755.6,641,724.6,500.2     C666.9,236.8,415.9,290.5,415.9,290.5z M501.1,556.5c-3.9,7.4-13.4,11-22.3,11c-24.3,0-38.4-19.1-38.4-41     c0-25.1,18-40.8,38.4-40.8c12.6,0,19.7,6.1,22.3,10.8h0.2v-8.2h22.8V565h-22.8v-8.4L501.1,556.5L501.1,556.5z M501.3,478.9v-8.4     h-0.2c-3.9,7.4-13.4,11-22.3,11c-24.3,0-38.4-19.1-38.4-41c0-25.1,18-40.8,38.4-40.8c12.6,0,19.7,6.1,22.3,10.8h0.2v-8.2h23V479     L501.3,478.9L501.3,478.9z M410.5,668.8c-3.9,7.4-13.4,11-22.3,11c-24.3,0-38.4-19.1-38.4-41c0-25.1,18-40.8,38.4-40.8     c12.6,0,19.7,6.1,22.3,10.8h0.2v-8.2h22.8v76.7h-22.8v-8.4L410.5,668.8L410.5,668.8z M410.4,402.2l-25.3,76.7h-18.4l-25.1-76.7     l-0.4,0.2l0.9,76.5h-23.8V376.8h35.8L376,444h0.4l21.4-67.2h36v102.1H410l0.9-76.5L410.4,402.2L410.4,402.2z M318.5,488.2h23v8.2     h0.2c1.9-3.2,7.6-10.8,19.9-10.8c6.7,0,14.5,2.4,20.4,13.7c4.6-7.4,12.3-13.7,23.8-13.7c5.2,0,13.7,1.3,19.7,7.8     c7.1,7.6,8.2,12.6,8.2,29.7v41.8h-22.5v-40.7c0-6.1,0-16.9-11.5-16.9c-12.4,0-12.4,11.5-12.4,15.8v41.8h-22.5v-41.8     c0-4.1,0-16-11.1-16c-12.6,0-12.3,12.4-12.3,16.9v40.7h-22.8L318.5,488.2L318.5,488.2z M341.5,574.1V677h-22.8V574.1H341.5z      M440.8,638.6c0-26,18.6-40.7,37.9-40.7c13.6,0,20.1,6.7,22.5,9.1v-32.9H524V677h-21.7v-8.4h-0.2c-1.9,3.2-7.4,10.8-22.8,10.8     C456,679.6,440.8,661.6,440.8,638.6L440.8,638.6z M612.9,645.6h-57.4c1.3,9.1,8.9,14.5,18,14.5c7.1,0,10.8-3.2,13.9-7.2h23.4     c-3.7,8.5-9.1,15.2-15.6,19.7c-6.3,4.6-13.9,6.9-21.7,6.9c-21.9,0-40.7-17.8-40.7-40.7c0-21.4,16.9-41.2,40.1-41.2     c23.4,0,40.5,18.6,40.5,41.8C613.5,642.7,613.1,644,612.9,645.6L612.9,645.6z M554.8,410.6c1.9-3.7,5.9-10.8,19.1-10.8v23     c-10.6,0.2-18,2.4-18,14.1V479h-22.8v-76.7h21.5v8.2L554.8,410.6L554.8,410.6z"/>
			<polygon id="polygon39" class="st1" points="155.3,653.6 155.3,677 161.6,677 161.2,661.2 161.4,661 166.2,677 170.7,677      175.1,661 175.3,661 175.1,677 181.4,677 181.4,653.6 172.9,653.6 168.4,668.3 168.3,668.3 163.8,653.6    "/>
			<polygon id="polygon41" class="st1" points="147.5,677 147.5,659.2 152.3,659.2 152.3,653.6 135.9,653.6 135.9,659.2      140.8,659.2 140.8,677    "/>
			<path id="path43" inkscape:connector-curvature="0" class="st1" d="M889,658.3c-11-49.8-58.3-39.5-58.3-39.5     c-18.9,3.7-44.2,22.8-37.9,53.8c6.7,33.4,39.9,43.6,61.1,39.4C877.7,707.1,894.7,684.8,889,658.3z"/>
		</g>
	</g>
</g>
</svg>